<mxfile host="app.diagrams.net" modified="2020-08-21T01:14:14.169Z" agent="5.0 (Windows NT 10.0; Win64; x64) AppleWebKit/537.36 (KHTML, like Gecko) Chrome/81.0.4044.138 Safari/537.36" etag="dXy-FFk2boaQgOn2TENw" version="13.5.9" type="github">
  <diagram id="VCUTk2EoV4HcfF-JtlfP" name="Page-1">
    <mxGraphModel dx="613" dy="677" grid="1" gridSize="10" guides="1" tooltips="1" connect="1" arrows="1" fold="1" page="1" pageScale="1" pageWidth="827" pageHeight="1169" math="0" shadow="0">
      <root>
        <mxCell id="0" />
        <mxCell id="1" parent="0" />
        <mxCell id="pugvg7nfJRtJgXc8xdgV-1" value="" style="whiteSpace=wrap;html=1;aspect=fixed;" vertex="1" parent="1">
          <mxGeometry x="530" y="600" width="120" height="120" as="geometry" />
        </mxCell>
        <mxCell id="pugvg7nfJRtJgXc8xdgV-2" value="NameNode" style="rounded=0;whiteSpace=wrap;html=1;" vertex="1" parent="1">
          <mxGeometry x="320" y="300" width="120" height="60" as="geometry" />
        </mxCell>
        <mxCell id="pugvg7nfJRtJgXc8xdgV-3" value="metadata ops" style="edgeStyle=orthogonalEdgeStyle;rounded=0;orthogonalLoop=1;jettySize=auto;html=1;entryX=0;entryY=0.5;entryDx=0;entryDy=0;" edge="1" parent="1" target="pugvg7nfJRtJgXc8xdgV-2">
          <mxGeometry relative="1" as="geometry">
            <mxPoint x="240" y="490" as="sourcePoint" />
          </mxGeometry>
        </mxCell>
        <mxCell id="pugvg7nfJRtJgXc8xdgV-4" style="edgeStyle=orthogonalEdgeStyle;rounded=0;orthogonalLoop=1;jettySize=auto;html=1;entryX=0.5;entryY=1;entryDx=0;entryDy=0;" edge="1" parent="1" source="pugvg7nfJRtJgXc8xdgV-6" target="pugvg7nfJRtJgXc8xdgV-15">
          <mxGeometry relative="1" as="geometry">
            <Array as="points">
              <mxPoint x="555" y="910" />
            </Array>
          </mxGeometry>
        </mxCell>
        <mxCell id="pugvg7nfJRtJgXc8xdgV-5" value="write" style="edgeLabel;html=1;align=center;verticalAlign=middle;resizable=0;points=[];" vertex="1" connectable="0" parent="pugvg7nfJRtJgXc8xdgV-4">
          <mxGeometry x="0.0755" y="3" relative="1" as="geometry">
            <mxPoint as="offset" />
          </mxGeometry>
        </mxCell>
        <mxCell id="pugvg7nfJRtJgXc8xdgV-6" value="client" style="ellipse;whiteSpace=wrap;html=1;" vertex="1" parent="1">
          <mxGeometry x="630" y="870" width="120" height="80" as="geometry" />
        </mxCell>
        <mxCell id="pugvg7nfJRtJgXc8xdgV-7" value="read" style="edgeStyle=orthogonalEdgeStyle;rounded=0;orthogonalLoop=1;jettySize=auto;html=1;entryX=0.5;entryY=1;entryDx=0;entryDy=0;" edge="1" parent="1" source="pugvg7nfJRtJgXc8xdgV-8">
          <mxGeometry relative="1" as="geometry">
            <mxPoint x="180" y="530" as="targetPoint" />
          </mxGeometry>
        </mxCell>
        <mxCell id="pugvg7nfJRtJgXc8xdgV-8" value="" style="whiteSpace=wrap;html=1;aspect=fixed;" vertex="1" parent="1">
          <mxGeometry x="190" y="600" width="120" height="120" as="geometry" />
        </mxCell>
        <mxCell id="pugvg7nfJRtJgXc8xdgV-9" value="" style="whiteSpace=wrap;html=1;aspect=fixed;" vertex="1" parent="1">
          <mxGeometry x="200" y="620" width="30" height="30" as="geometry" />
        </mxCell>
        <mxCell id="pugvg7nfJRtJgXc8xdgV-10" value="" style="whiteSpace=wrap;html=1;aspect=fixed;" vertex="1" parent="1">
          <mxGeometry x="260" y="620" width="30" height="30" as="geometry" />
        </mxCell>
        <mxCell id="pugvg7nfJRtJgXc8xdgV-11" value="" style="whiteSpace=wrap;html=1;aspect=fixed;" vertex="1" parent="1">
          <mxGeometry x="260" y="680" width="30" height="30" as="geometry" />
        </mxCell>
        <mxCell id="pugvg7nfJRtJgXc8xdgV-12" value="" style="whiteSpace=wrap;html=1;aspect=fixed;" vertex="1" parent="1">
          <mxGeometry x="370" y="600" width="120" height="120" as="geometry" />
        </mxCell>
        <mxCell id="pugvg7nfJRtJgXc8xdgV-13" value="" style="whiteSpace=wrap;html=1;aspect=fixed;" vertex="1" parent="1">
          <mxGeometry x="380" y="620" width="30" height="30" as="geometry" />
        </mxCell>
        <mxCell id="pugvg7nfJRtJgXc8xdgV-14" value="" style="whiteSpace=wrap;html=1;aspect=fixed;" vertex="1" parent="1">
          <mxGeometry x="380" y="680" width="30" height="30" as="geometry" />
        </mxCell>
        <mxCell id="pugvg7nfJRtJgXc8xdgV-15" value="" style="whiteSpace=wrap;html=1;aspect=fixed;" vertex="1" parent="1">
          <mxGeometry x="540" y="620" width="30" height="30" as="geometry" />
        </mxCell>
        <mxCell id="pugvg7nfJRtJgXc8xdgV-16" value="" style="whiteSpace=wrap;html=1;aspect=fixed;" vertex="1" parent="1">
          <mxGeometry x="600" y="620" width="30" height="30" as="geometry" />
        </mxCell>
        <mxCell id="pugvg7nfJRtJgXc8xdgV-17" value="" style="shape=curlyBracket;whiteSpace=wrap;html=1;rounded=1;direction=north;" vertex="1" parent="1">
          <mxGeometry x="240" y="720" width="340" height="20" as="geometry" />
        </mxCell>
        <mxCell id="pugvg7nfJRtJgXc8xdgV-18" value="Datanodes" style="text;html=1;align=center;verticalAlign=middle;resizable=0;points=[];autosize=1;" vertex="1" parent="1">
          <mxGeometry x="360" y="560" width="80" height="20" as="geometry" />
        </mxCell>
        <mxCell id="pugvg7nfJRtJgXc8xdgV-19" value="" style="whiteSpace=wrap;html=1;aspect=fixed;" vertex="1" parent="1">
          <mxGeometry x="750" y="600" width="120" height="120" as="geometry" />
        </mxCell>
        <mxCell id="pugvg7nfJRtJgXc8xdgV-20" value="" style="whiteSpace=wrap;html=1;aspect=fixed;" vertex="1" parent="1">
          <mxGeometry x="760" y="620" width="30" height="30" as="geometry" />
        </mxCell>
        <mxCell id="pugvg7nfJRtJgXc8xdgV-21" value="" style="whiteSpace=wrap;html=1;aspect=fixed;" vertex="1" parent="1">
          <mxGeometry x="820" y="620" width="30" height="30" as="geometry" />
        </mxCell>
        <mxCell id="pugvg7nfJRtJgXc8xdgV-22" value="" style="whiteSpace=wrap;html=1;aspect=fixed;" vertex="1" parent="1">
          <mxGeometry x="910" y="600" width="120" height="120" as="geometry" />
        </mxCell>
        <mxCell id="pugvg7nfJRtJgXc8xdgV-23" value="" style="whiteSpace=wrap;html=1;aspect=fixed;" vertex="1" parent="1">
          <mxGeometry x="920" y="620" width="30" height="30" as="geometry" />
        </mxCell>
        <mxCell id="pugvg7nfJRtJgXc8xdgV-24" value="" style="whiteSpace=wrap;html=1;aspect=fixed;" vertex="1" parent="1">
          <mxGeometry x="980" y="620" width="30" height="30" as="geometry" />
        </mxCell>
        <mxCell id="pugvg7nfJRtJgXc8xdgV-25" value="" style="whiteSpace=wrap;html=1;aspect=fixed;" vertex="1" parent="1">
          <mxGeometry x="920" y="670" width="30" height="30" as="geometry" />
        </mxCell>
        <mxCell id="pugvg7nfJRtJgXc8xdgV-26" value="" style="whiteSpace=wrap;html=1;aspect=fixed;" vertex="1" parent="1">
          <mxGeometry x="980" y="670" width="30" height="30" as="geometry" />
        </mxCell>
        <mxCell id="pugvg7nfJRtJgXc8xdgV-27" value="" style="shape=curlyBracket;whiteSpace=wrap;html=1;rounded=1;direction=north;" vertex="1" parent="1">
          <mxGeometry x="760" y="720" width="230" height="20" as="geometry" />
        </mxCell>
        <mxCell id="pugvg7nfJRtJgXc8xdgV-28" value="replication" style="endArrow=classic;startArrow=classic;html=1;entryX=0;entryY=0.5;entryDx=0;entryDy=0;exitX=1;exitY=0.5;exitDx=0;exitDy=0;" edge="1" parent="1" source="pugvg7nfJRtJgXc8xdgV-1" target="pugvg7nfJRtJgXc8xdgV-19">
          <mxGeometry width="50" height="50" relative="1" as="geometry">
            <mxPoint x="470" y="730" as="sourcePoint" />
            <mxPoint x="520" y="680" as="targetPoint" />
          </mxGeometry>
        </mxCell>
        <mxCell id="pugvg7nfJRtJgXc8xdgV-30" style="edgeStyle=orthogonalEdgeStyle;rounded=0;orthogonalLoop=1;jettySize=auto;html=1;" edge="1" parent="1" source="pugvg7nfJRtJgXc8xdgV-29">
          <mxGeometry relative="1" as="geometry">
            <mxPoint x="240" y="490" as="targetPoint" />
          </mxGeometry>
        </mxCell>
        <mxCell id="pugvg7nfJRtJgXc8xdgV-29" value="client" style="ellipse;whiteSpace=wrap;html=1;" vertex="1" parent="1">
          <mxGeometry x="130" y="450" width="90" height="80" as="geometry" />
        </mxCell>
      </root>
    </mxGraphModel>
  </diagram>
</mxfile>
